<svg version="1.1" id="Layer_1" xmlns="http://www.w3.org/2000/svg" x="0" y="0" viewBox="0 0 52.9 56" style="enable-background:new 0 0 52.9 56" xml:space="preserve">
  <style>
    .st0{fill:#61666f}
  </style>
  <path class="st0" d="M6 45.4c-1.2 0-2.1-.9-2.1-2.1V27.5c0-1.2.9-2.1 2.1-2.1h2.9v-3H4.6c-2 0-3.7 1.6-3.7 3.7v18.8c0 2 1.6 3.7 3.7 3.7h4.3v-3.2H6zM48.3 22.4H44v3h2.9c1.2 0 2.1.9 2.1 2.1v15.8c0 1.2-.9 2.1-2.1 2.1H44v3.2h4.3c2 0 3.7-1.6 3.7-3.7V26c-.1-2-1.7-3.6-3.7-3.6z"/>
  <g>
    <path class="st0" d="M35.4 10.5c2.2 0 4.1 1.8 4.1 4.1v30.9h-26V14.6c0-2.2 1.8-4.1 4.1-4.1h17.8m0-3H17.5c-3.9 0-7.1 3.2-7.1 7.1v33.9h32V14.6c0-3.9-3.1-7.1-7-7.1z"/>
    <path d="M35.4 10.5c2.2 0 4.1 1.8 4.1 4.1v30.9h-26V14.6c0-2.2 1.8-4.1 4.1-4.1h17.8" style="fill:#fff"/>
  </g>
</svg>
